<svg width="141" height="51" viewBox="0 0 141 51" fill="none" xmlns="http://www.w3.org/2000/svg">
<path d="M64.3849 11.8029H61.1865V2.84181H59.4258V0.015625H66.2148V2.84181H64.3849V11.8029Z" fill="#006445"/>
<path d="M67.0381 11.8029V0.015625H72.9814V2.84181H70.2366V4.34298H72.6969V7.16916H70.2366V8.97669H72.9814V11.8029H67.0381Z" fill="#006445"/>
<path d="M80.9931 8.21058L80.8085 11.4044C80.202 11.6498 79.5562 11.7847 78.9018 11.8027C78.277 11.8146 77.6566 11.6961 77.0805 11.4547C76.5045 11.2133 75.9856 10.8544 75.5573 10.4011C74.4761 9.18056 73.9234 7.58372 74.0195 5.95882C73.9437 4.39359 74.4501 2.85549 75.4419 1.63912C75.9154 1.10386 76.5026 0.680395 77.161 0.399528C77.8193 0.118662 78.5321 -0.0125491 79.2477 0.0154081C79.7882 0.0176478 80.3242 0.113535 80.8316 0.298789V3.55388C80.6471 3.34341 80.422 3.17196 80.1698 3.04962C79.9175 2.92727 79.6432 2.85653 79.3631 2.84159C79.0563 2.83188 78.7524 2.90329 78.4822 3.04859C78.2121 3.19388 77.9855 3.40789 77.8254 3.66878C77.4192 4.36426 77.2267 5.16314 77.2718 5.96649C77.2668 6.39427 77.3133 6.82109 77.4102 7.23787C77.4842 7.57371 77.6197 7.89311 77.81 8.17996C77.9639 8.42879 78.1815 8.63231 78.4405 8.76968C78.7024 8.9106 78.9963 8.98184 79.2939 8.97648C79.9277 8.94224 80.5245 8.66829 80.9624 8.21058" fill="#006445"/>
<path d="M90.4048 11.8029H87.214V7.06193H85.6916V11.8029H82.4932V0.015625H85.6916V4.23575H87.214V0.015625H90.4048V11.8029Z" fill="#006445"/>
<path d="M92.0566 11.8029V0.015625H95.1321L96.7314 4.15152L97.0235 4.994C97.1388 5.30802 97.2619 5.67564 97.3926 6.08156L97.7232 7.12323C97.6001 6.09692 97.5156 5.22379 97.4541 4.49619C97.3926 3.76858 97.3618 3.15584 97.3618 2.66567V0.015625H100.437V11.8029H97.3618L95.655 7.46789C95.4781 7.00069 95.3167 6.57178 95.1706 6.16585C95.0245 5.75992 94.9015 5.39994 94.7938 5.00933C94.9245 5.8365 95.0168 6.54115 95.0706 7.17685C95.1244 7.81255 95.1629 8.33335 95.1629 8.79289V11.8029H92.0566Z" fill="#006445"/>
<path d="M105.235 0.015625H102.044V11.8029H105.235V0.015625Z" fill="#006445"/>
<path d="M106.895 11.8029V0.015625H112.83V2.84181H110.085V4.34298H112.546V7.16916H110.085V8.97669H112.83V11.8029H106.895Z" fill="#006445"/>
<path d="M122.871 11.8029H119.426L117.304 6.36496L117.389 11.8029H114.19V0.015625H117.389L117.304 5.07058L119.188 0.015625H122.556L120.011 5.69863L122.871 11.8029Z" fill="#006445"/>
<path d="M66.4463 27.5337L66.2618 30.7276C65.6555 30.9736 65.0094 31.1085 64.3549 31.1258C63.7311 31.1386 63.1116 31.0204 62.5367 30.7789C61.9618 30.5374 61.4444 30.1781 61.0181 29.7242C60.481 29.121 60.0686 28.4181 59.8047 27.6558C59.5409 26.8935 59.4306 26.0868 59.4804 25.282C59.4008 23.7162 59.9077 22.1769 60.9027 20.9623C61.5716 20.2413 62.4367 19.7298 63.3924 19.4905C64.3482 19.2511 65.3532 19.2941 66.2848 19.6143V22.8771C66.1023 22.6661 65.8787 22.4943 65.6276 22.3719C65.3765 22.2494 65.1032 22.1789 64.824 22.1647C64.5172 22.155 64.2132 22.2265 63.9431 22.3718C63.673 22.5171 63.4464 22.731 63.2863 22.9919C62.8801 23.6874 62.6876 24.4863 62.7326 25.2896C62.7277 25.7174 62.7742 26.1443 62.8711 26.561C62.946 26.8953 63.0787 27.2141 63.2632 27.5031C63.422 27.7506 63.6416 27.9537 63.9013 28.0929C64.163 28.2344 64.4571 28.3057 64.7548 28.2996C65.3866 28.2665 65.9814 27.9922 66.4155 27.5337" fill="#B0BD36"/>
<path d="M73.0745 25.2977C73.0745 23.2068 72.6977 22.1651 71.9442 22.1651C71.5675 22.1651 71.26 22.4409 71.037 22.9846C70.7853 23.7051 70.673 24.4666 70.7064 25.2287C70.6731 26.0072 70.7799 26.7854 71.0216 27.5264C71.2292 28.0626 71.5137 28.3307 71.8828 28.3307C72.2518 28.3307 72.5517 28.0626 72.7516 27.5648C72.9956 26.8558 73.1051 26.1078 73.0745 25.359V25.2977ZM76.396 25.359C76.4626 26.8656 76.0274 28.352 75.1581 29.5867C74.7986 30.0951 74.3202 30.5086 73.7643 30.7915C73.2083 31.0744 72.5916 31.2183 71.9673 31.2105C71.4085 31.2171 70.8542 31.1097 70.3386 30.895C69.8229 30.6803 69.3567 30.3628 68.9687 29.9621C67.9436 28.9102 67.431 27.3324 67.431 25.2287C67.3764 24.3921 67.4935 23.5532 67.7751 22.7632C68.0567 21.9731 68.4968 21.2484 69.0687 20.6333C69.446 20.2525 69.8965 19.9511 70.3931 19.7472C70.8897 19.5432 71.4225 19.4409 71.9596 19.4462C72.5928 19.4266 73.221 19.5632 73.7884 19.8438C74.3558 20.1244 74.8448 20.5403 75.2119 21.0546C76.0801 22.3263 76.5068 23.8461 76.4268 25.3819" fill="#B0BD36"/>
<path d="M83.3523 31.1194H77.7627V19.3398H80.9535V28.3009H83.3523V31.1194Z" fill="#B0BD36"/>
<path d="M89.8942 31.1194H84.2969V19.3398H87.4953V28.3009H89.8942V31.1194Z" fill="#B0BD36"/>
<path d="M90.8428 31.1194V19.3398H96.7861V22.166H94.0412V23.6672H96.5016V26.4934H94.0412V28.3009H96.7861V31.1194H90.8428Z" fill="#B0BD36"/>
<path d="M102.26 24.31H106.719V24.7849C106.719 26.983 106.373 28.5684 105.697 29.5411C105.331 30.0623 104.837 30.4816 104.262 30.7591C103.688 31.0366 103.051 31.1631 102.414 31.1265C101.772 31.1548 101.133 31.0307 100.548 30.7644C99.9641 30.498 99.4518 30.0971 99.0538 29.5947C98.186 28.3375 97.7615 26.829 97.8467 25.3057C97.7611 23.7596 98.1879 22.2284 99.0615 20.9477C99.4454 20.4315 99.9501 20.0166 100.532 19.739C101.113 19.4614 101.754 19.3294 102.398 19.3546C104.264 19.3546 105.62 20.3222 106.466 22.2574L103.39 23.3833C103.363 23.0676 103.254 22.7642 103.075 22.5025C103.004 22.4035 102.911 22.3227 102.803 22.2668C102.694 22.2108 102.574 22.1813 102.452 22.1808C101.568 22.1808 101.13 23.3067 101.13 25.5737C101.092 26.2829 101.191 26.9927 101.422 27.6647C101.487 27.8577 101.613 28.0248 101.78 28.1419C101.947 28.259 102.148 28.3199 102.352 28.3157C102.51 28.3166 102.665 28.2799 102.806 28.2084C102.946 28.1345 103.067 28.0297 103.16 27.9021C103.261 27.7578 103.336 27.5971 103.382 27.4272C103.437 27.2251 103.463 27.0162 103.459 26.8069H102.283L102.26 24.31Z" fill="#B0BD36"/>
<path d="M108.079 31.1194V19.3398H114.022V22.166H111.278V23.6672H113.738V26.4934H111.278V28.3009H114.022V31.1194H108.079Z" fill="#B0BD36"/>
<path d="M62.6549 43.9094H62.8702C63.0459 43.9128 63.2201 43.8767 63.3798 43.8038C63.5396 43.7308 63.6807 43.623 63.7928 43.4882C64.0397 43.1892 64.1682 42.8105 64.1541 42.4236C64.1541 41.5428 63.6929 41.0986 62.7702 41.0986H62.6549V43.9094ZM67.8755 50.4043H64.4156L62.8779 46.2071C62.8573 46.1114 62.8317 46.0168 62.801 45.9237L62.6549 45.5025V46.2684V50.389H59.4795V38.6553H62.7472C63.8911 38.5718 65.0302 38.871 65.984 39.5055C66.4359 39.8742 66.7945 40.3436 67.0309 40.8758C67.2673 41.4079 67.3749 41.9879 67.3449 42.5691C67.3916 43.1901 67.2397 43.8099 66.911 44.3396C66.5822 44.8693 66.0936 45.2818 65.515 45.5178L67.8755 50.4043Z" fill="#006445"/>
<path d="M74.1625 44.5754C74.1625 42.4921 73.7858 41.4429 73.0323 41.4429C72.6556 41.4429 72.3481 41.7186 72.1251 42.27C71.8726 42.9903 71.7604 43.752 71.7945 44.5141C71.76 45.2927 71.8668 46.0711 72.1097 46.8119C72.3173 47.348 72.6018 47.5778 72.9708 47.5778C73.3399 47.5778 73.6398 47.3173 73.8397 46.8119C74.0841 46.1004 74.1936 45.3498 74.1625 44.5984V44.5754ZM77.4841 44.5984C77.5506 46.1051 77.1155 47.5914 76.2462 48.8262C75.8867 49.3346 75.4082 49.748 74.8523 50.0309C74.2963 50.3138 73.6796 50.4577 73.0554 50.4499C72.4963 50.4583 71.9415 50.3518 71.4255 50.137C70.9096 49.9222 70.4436 49.6037 70.0568 49.2015C69.0317 48.1496 68.5191 46.5744 68.5191 44.4758C68.4663 43.6394 68.5842 42.8009 68.8657 42.0111C69.1472 41.2213 69.5864 40.4965 70.1568 39.8804C70.5341 39.4995 70.9845 39.1982 71.4812 38.9943C71.9778 38.7903 72.5106 38.6879 73.0477 38.6933C73.6809 38.6737 74.3091 38.8102 74.8765 39.0908C75.4439 39.3714 75.9329 39.7874 76.3 40.3017C77.1681 41.5734 77.5947 43.0931 77.5148 44.629" fill="#006445"/>
<path d="M83.0588 50.4044H79.8603V41.4434H78.0996V38.6172H84.8887V41.4434H83.0588V50.4044Z" fill="#006445"/>
<path d="M89.8488 50.4044H86.6503V41.4434H84.8896V38.6172H91.6787V41.4434H89.8488V50.4044Z" fill="#006445"/>
<path d="M92.502 50.4044V38.6172H98.4453V41.4434H95.7004V42.9445H98.1608V45.7707H95.7004V47.5783H98.4453V50.4044H92.502Z" fill="#006445"/>
<path d="M102.996 43.9094H103.211C103.387 43.9128 103.561 43.8767 103.721 43.8038C103.88 43.7308 104.022 43.623 104.134 43.4882C104.381 43.1892 104.509 42.8105 104.495 42.4236C104.495 41.5428 104.034 41.0986 103.111 41.0986H102.996V43.9094ZM108.216 50.4043H104.756L103.219 46.2071C103.198 46.1114 103.172 46.0168 103.142 45.9237L102.996 45.5025V46.2684V50.389H99.8203V38.6553H103.088C104.232 38.5718 105.371 38.871 106.325 39.5055C106.777 39.8742 107.135 40.3436 107.372 40.8758C107.608 41.4079 107.716 41.9879 107.686 42.5691C107.733 43.1901 107.581 43.8099 107.252 44.3396C106.923 44.8693 106.434 45.2818 105.856 45.5178L108.216 50.4043Z" fill="#006445"/>
<path d="M112.447 47.5779C113.59 47.5269 114.161 46.5465 114.161 44.6368C114.198 43.8696 114.047 43.1049 113.723 42.4081C113.629 42.1712 113.467 41.9667 113.258 41.8198C113.05 41.6729 112.802 41.5899 112.546 41.5809H112.447V47.5779ZM109.248 50.4041V38.6551H112.008C112.676 38.614 113.345 38.7051 113.978 38.9233C114.61 39.1416 115.192 39.4825 115.691 39.9265C116.282 40.5324 116.741 41.2533 117.038 42.0442C117.336 42.835 117.466 43.6785 117.421 44.5219C117.529 46.1586 117.007 47.7747 115.96 49.0408C115.474 49.5199 114.89 49.8895 114.248 50.1247C113.606 50.3599 112.921 50.4552 112.239 50.4041H109.248Z" fill="#006445"/>
<path d="M123.119 46.4294L122.911 45.0507C122.903 44.9821 122.903 44.9127 122.911 44.844C122.911 44.7368 122.85 44.2925 122.75 43.5189C122.75 43.4347 122.75 43.3122 122.75 43.1667C122.75 43.0211 122.75 42.822 122.688 42.5999L122.588 41.4817C122.588 41.5889 122.588 41.7114 122.588 41.8416C122.588 41.9718 122.588 42.1173 122.527 42.2782C122.527 42.5922 122.465 42.8067 122.45 42.9292C122.435 43.0518 122.45 43.1283 122.45 43.1513L122.227 44.5836L121.904 46.4294H123.119ZM127.032 50.4044H123.734L123.496 48.8726H121.343L121.081 50.4044H117.775L120.62 38.6172H124.526L127.032 50.4044Z" fill="#006445"/>
<path d="M140.025 50.4041H136.789L136.665 45.0428L136.558 42.8982C136.558 43.3118 136.481 43.7024 136.427 44.0777C136.373 44.453 136.327 44.8436 136.258 45.1653L135.212 50.4194H132.552L131.699 45.1576C131.645 44.8513 131.576 44.3305 131.491 43.5875C131.491 43.4727 131.491 43.2505 131.422 42.8982L131.345 45.0734L131.06 50.4347H127.662L129.038 38.6475H133.013L133.682 42.6225C133.736 42.9442 133.79 43.2965 133.828 43.6794C133.867 44.0624 133.913 44.4453 133.951 44.9202C134.004 44.2469 134.094 43.5771 134.22 42.9135L134.989 38.6475H138.834L140.025 50.4041Z" fill="#006445"/>
<path d="M50.6373 0H0V50.4424H50.6373V0Z" fill="#B0BD36"/>
<path d="M0 0V18.3664H20.1135L20.1442 50.4424H40.5345L40.5037 18.3664H50.6373V0H0Z" fill="#006445"/>
</svg>
